<?xml version="1.0" encoding="UTF-8"?>
<!DOCTYPE svg PUBLIC "-//W3C//DTD SVG 1.1//EN" "http://www.w3.org/Graphics/SVG/1.1/DTD/svg11.dtd">
<!-- Creator: CorelDRAW 2020 (64-Bit) -->
<svg xmlns="http://www.w3.org/2000/svg" xml:space="preserve" width="47mm" height="18mm" version="1.1" style="shape-rendering:geometricPrecision; text-rendering:geometricPrecision; image-rendering:optimizeQuality; fill-rule:evenodd; clip-rule:evenodd"
viewBox="0 0 4700 1800"
 xmlns:xlink="http://www.w3.org/1999/xlink"
 xmlns:xodm="http://www.corel.com/coreldraw/odm/2003">
 <defs>
  <style type="text/css">
   <![CDATA[
    .str0 {stroke:#00A859;stroke-width:7.62;stroke-miterlimit:22.9256}
    .fil2 {fill:#FEFEFE}
    .fil0 {fill:#00A859}
    .fil1 {fill:#00A859;fill-rule:nonzero}
   ]]>
  </style>
 </defs>
 <g id="Capa_x0020_1">
  <metadata id="CorelCorpID_0Corel-Layer"/>
  <g id="_2295366661120">
   <circle class="fil0" cx="3952.89" cy="931.09" r="680.7"/>
   <path class="fil1 str0" d="M224.51 1217.3c-60.57,0 -107.42,-15.83 -140.34,-47.9 -32.92,-31.87 -49.38,-76.82 -49.38,-135.06l0 -20.47 128.52 -0.42 0 20.26c0,21.52 5.7,37.98 17.3,49.8 11.61,11.82 27.65,17.72 48.33,17.72 20.05,0 35.87,-5.9 47.27,-17.3 11.18,-11.61 16.88,-27.86 16.88,-48.96l0 -720.23 129.36 0 0 720.23c0,38.83 -7.81,71.75 -23.21,98.97 -15.62,27.23 -38.2,47.91 -67.74,62.05 -29.76,14.35 -65.42,21.31 -106.99,21.31zm-56.35 -249.65c-28.7,0 -53.39,-7.38 -73.86,-21.94 -20.25,-14.77 -35.87,-35.88 -46.63,-63.73 -10.77,-27.86 -16.04,-61.41 -16.04,-100.45l0 -287.42c0,-40.09 5.27,-74.28 16.04,-102.98 10.76,-28.7 26.38,-50.44 46.63,-65.21 20.47,-14.98 45.16,-22.37 73.86,-22.37 28.91,0 55.5,10.13 79.56,29.97 24.06,20.05 43.47,48.11 58.45,84.41l-13.08 85.47c0,-17.31 -2.53,-32.29 -7.6,-44.53 -5.27,-12.45 -12.87,-21.95 -23,-28.49 -10.13,-6.54 -22.16,-9.92 -36.08,-9.92 -21.11,0 -37.57,7.39 -49.59,21.95 -11.82,14.56 -17.94,35.03 -17.94,61.41l0 269.69c0,24.27 6.12,43.05 17.94,56.56 12.02,13.29 28.48,20.04 49.59,20.04 13.92,0 25.95,-3.16 36.08,-9.28 10.13,-6.12 17.73,-15.41 23,-27.44 5.07,-12.24 7.6,-26.8 7.6,-43.68l8.65 85.89c-11.39,35.45 -28.7,63.1 -51.91,82.72 -23,19.42 -50.22,29.33 -81.67,29.33z"/>
   <path id="1" class="fil1 str0" d="M808.84 314.74l129.15 0 0 641.73 -129.15 0 0 -641.73zm-126.19 469.95c0,20.9 5.27,36.72 16.04,47.27 10.76,10.34 26.58,15.62 47.69,15.62 20.89,0 36.51,-5.49 46.85,-16.25 10.34,-10.97 15.61,-27.43 15.61,-49.17l8.65 73.44c-11.18,37.14 -26.8,64.78 -47.06,82.93 -20.25,18.15 -45.58,27.23 -75.96,27.23 -46.64,0 -81.88,-14.99 -105.52,-44.74 -23.63,-29.97 -35.45,-74.28 -35.45,-132.74l0 -473.54 129.15 0 0 469.95z"/>
   <path id="2" class="fil1 str0" d="M1329.24 490.31c0,-23 -6.12,-40.94 -18.15,-53.39 -12.24,-12.66 -29.55,-18.99 -51.7,-18.99 -19.42,0 -34.4,6.33 -45.16,18.99 -10.77,12.45 -16.04,30.39 -16.04,53.39l-125.56 0c0,-59.3 16.67,-105.3 49.8,-137.8 33.13,-32.71 79.56,-48.96 139.49,-48.96 40.3,0 74.91,7.39 103.82,21.95 28.91,14.77 50.86,35.87 65.84,63.73 14.99,27.86 22.58,61.62 22.58,101.08l0 466.16 -124.92 0 0 -466.16zm-115.01 475.45c-51.07,0 -89.69,-15.2 -115.65,-45.38 -25.95,-30.38 -38.83,-75.54 -38.83,-135.69 0,-70.9 17.1,-124.29 51.28,-160.16 34.19,-35.88 84.84,-53.82 151.94,-53.82l70.49 0 8.65 110.58 -75.97 0c-27.65,0 -48.33,8.65 -62.04,25.96 -13.93,17.3 -20.68,43.05 -20.68,77.44 0,23.01 5.27,40.1 16.24,51.49 10.98,11.4 27.44,17.1 49.17,17.1 26.38,0 46.43,-7.39 59.94,-22.37 13.71,-14.77 20.47,-36.72 20.47,-65.42l12.45 57.4c-0.43,31.44 -5.49,57.61 -15.2,78.92 -9.71,21.11 -24.06,37.14 -42.63,47.91 -18.78,10.76 -41.99,16.04 -69.63,16.04z"/>
   <path id="3" class="fil1 str0" d="M1585.21 314.74l129.78 0 0 641.73 -129.78 0 0 -641.73zm298.6 121.13c-3.8,0 -8.02,0 -12.45,0 -4.43,0 -9.71,0 -15.4,0 -44.11,0 -78.51,11.39 -103.41,34.39 -24.69,22.8 -37.14,54.03 -37.56,93.7l-13.08 -137.38c20.26,-38.62 46.21,-68.79 77.65,-90.53 31.45,-21.52 66.27,-32.5 104.25,-32.5 0,0 0,0 0,0 0,0 0,0 0,0l0 132.32z"/>
   <path id="4" class="fil1 str0" d="M2216.81 57.5l129.99 0 0 898.97 -129.99 0 0 -898.97zm-124.93 910.15c-28.28,0 -52.76,-7.38 -73.23,-21.94 -20.25,-14.77 -35.87,-35.88 -46.63,-63.73 -10.77,-27.86 -16.04,-61.41 -16.04,-100.45l0 -287.42c0,-40.09 5.27,-74.28 16.04,-102.98 10.76,-28.7 26.38,-50.44 46.63,-65.21 20.47,-14.98 44.95,-22.37 73.23,-22.37 28.91,0 55.5,10.13 79.56,29.97 24.05,20.05 43.47,48.11 58.45,84.41l-13.08 87.79c0,-17.31 -2.53,-32.29 -7.6,-44.74 -5.27,-12.66 -12.66,-22.16 -22.58,-28.49 -9.92,-6.33 -21.95,-9.5 -35.87,-9.5 -21.11,0 -37.36,7.18 -49.17,21.95 -11.82,14.56 -17.73,35.03 -17.73,61.41l0 264.63c0,24.27 5.91,43.26 17.73,56.55 11.81,13.51 28.06,20.05 49.17,20.05 13.92,0 25.95,-2.95 35.87,-9.28 9.92,-6.12 17.31,-15.2 22.58,-27.44 5.07,-12.24 7.6,-26.59 7.6,-43.47l8.65 88.21c-10.97,35.45 -28.28,63.1 -51.49,82.72 -23.42,19.42 -50.65,29.33 -82.09,29.33z"/>
   <path id="5" class="fil1 str0" d="M2472.78 63.19l129.79 0 0 128.52 -129.79 0 0 -128.52zm0 251.55l129.79 0 0 641.73 -129.79 0 0 -641.73z"/>
   <path id="6" class="fil1 str0" d="M2988.96 490.31c0,-23 -6.12,-40.94 -18.15,-53.39 -12.24,-12.66 -29.55,-18.99 -51.7,-18.99 -19.42,0 -34.4,6.33 -45.16,18.99 -10.77,12.45 -16.04,30.39 -16.04,53.39l-125.56 0c0,-59.3 16.67,-105.3 49.8,-137.8 33.13,-32.71 79.56,-48.96 139.49,-48.96 40.3,0 74.91,7.39 103.82,21.95 28.91,14.77 50.86,35.87 65.84,63.73 14.99,27.86 22.58,61.62 22.58,101.08l0 466.16 -124.92 0 0 -466.16zm-115.01 475.45c-51.07,0 -89.69,-15.2 -115.65,-45.38 -25.95,-30.38 -38.83,-75.54 -38.83,-135.69 0,-70.9 17.1,-124.29 51.28,-160.16 34.19,-35.88 84.84,-53.82 151.94,-53.82l70.49 0 8.65 110.58 -75.97 0c-27.65,0 -48.33,8.65 -62.04,25.96 -13.93,17.3 -20.68,43.05 -20.68,77.44 0,23.01 5.27,40.1 16.24,51.49 10.98,11.4 27.44,17.1 49.17,17.1 26.38,0 46.43,-7.39 59.94,-22.37 13.71,-14.77 20.47,-36.72 20.47,-65.42l12.45 57.4c-0.43,31.44 -5.49,57.61 -15.2,78.92 -9.71,21.11 -24.06,37.14 -42.63,47.91 -18.78,10.76 -41.99,16.04 -69.63,16.04z"/>
   <rect class="fil2" x="3849" y="481" width="207.73" height="900.18" rx="31.21" ry="31.21"/>
   <rect class="fil2" transform="matrix(5.77613E-14 -2.18094 2.18094 5.77613E-14 3502.79 1034.98)" width="95.25" height="412.75" rx="14.31" ry="14.31"/>
   <path class="fil1" d="M2044.93 1184.08l56.9 0 0 576.66 -56.9 0 0 -576.66zm144.27 415.94c-22.38,0 -42.07,-6.2 -59.06,-18.74 -16.98,-12.54 -28.31,-29.66 -33.84,-51.64l5.53 -62.02c0,17.66 2.56,32.77 7.69,45.03 5.12,12.41 12.8,21.98 22.78,28.45 9.98,6.61 21.98,9.98 35.87,9.98 21.57,0 38.42,-7.55 50.42,-22.38 12,-14.83 17.93,-35.73 17.93,-62.56l0 -157.21c0,-26.42 -5.93,-46.78 -17.93,-61.21 -12,-14.56 -28.85,-21.71 -50.42,-21.71 -13.89,0 -25.89,3.1 -35.87,9.44 -9.98,6.34 -17.66,15.64 -22.78,27.78 -5.13,12.26 -7.69,26.96 -7.69,44.08l-8.22 -55.28c8.09,-23.46 21.3,-41.79 39.64,-55.14 18.33,-13.21 38.29,-19.95 59.86,-19.95 20.76,0 38.56,5.12 53.26,15.5 14.83,10.25 26.02,25.21 33.57,44.76 7.68,19.69 11.46,43.42 11.46,71.33l0 157.61c0,28.18 -3.91,52.31 -12,72.4 -8.09,20.23 -19.69,35.46 -34.92,45.84 -15.37,10.38 -33.71,15.64 -55.28,15.64z"/>
   <path id="1" class="fil1" d="M2427.3 1486.23c0,17.39 3.91,30.87 11.73,40.45 7.69,9.7 18.74,14.42 32.9,14.42l26.16 0 0 52.99 -31.69 0c-30.47,0 -54.2,-9.44 -70.92,-28.45 -16.72,-19.01 -25.08,-45.7 -25.08,-80.22l0 -465.69 56.9 0 0 466.5z"/>
   <path id="2" class="fil1" d="M2739.28 1184.08l56.5 0 0 410.01 -56.5 0 0 -410.01zm-129.56 300.53c0,19.82 5.66,35.19 16.98,46.11 11.33,10.92 27.37,16.32 48.27,16.32 21.57,0 37.62,-5.26 48.27,-15.91 10.79,-10.66 16.04,-26.7 16.04,-48l5.53 53.25c-8.09,21.31 -19.82,37.35 -34.92,47.87 -15.1,10.51 -33.97,15.77 -56.35,15.77 -31.82,0 -56.5,-10.11 -74.02,-30.2 -17.53,-20.22 -26.3,-48.54 -26.3,-85.21l0 -300.53 56.5 0 0 300.53z"/>
   <path id="3" class="fil1" d="M2986.96 1600.02c-27.64,0 -50.69,-4.58 -69.03,-13.62 -18.2,-9.16 -31.96,-22.78 -41.26,-40.85 -9.17,-18.2 -13.75,-40.98 -13.75,-68.35l0 0 52.45 0 0 0c0,24.67 5.93,43.27 17.79,55.68 11.87,12.4 29.8,18.6 53.8,18.6 23.86,0 41.8,-5.93 53.66,-17.79 11.87,-11.87 17.8,-29.66 17.8,-53.39 0,-11.87 -2.56,-21.71 -7.55,-29.53 -4.99,-7.96 -11.73,-14.29 -20.09,-19.28 -8.5,-4.85 -19.01,-9.3 -31.55,-13.62 -1.89,-0.54 -3.78,-1.08 -5.8,-1.75 -2.02,-0.68 -4.04,-1.21 -6.07,-1.75 -1.34,-0.54 -2.69,-0.95 -4.18,-1.35 -1.48,-0.41 -2.83,-0.81 -4.17,-1.08 -23.73,-7.01 -42.88,-14.16 -57.71,-21.3 -14.7,-7.15 -27.24,-18.34 -37.62,-33.58 -10.51,-15.23 -15.64,-35.86 -15.64,-62.02 0,-26.29 4.32,-48.26 12.81,-65.79 8.63,-17.39 21.44,-30.61 38.56,-39.24 17.12,-8.76 38.56,-13.07 64.31,-13.07 25.89,0 47.33,4.31 64.45,12.67 17.12,8.36 29.93,21.17 38.43,38.16 8.63,16.98 12.94,38.15 12.94,63.77l0 0 -52.58 0 0 0c0,-22.11 -5.26,-38.7 -15.78,-49.62 -10.51,-10.92 -26.29,-16.31 -47.46,-16.31 -21.03,0 -36.8,5.66 -47.32,16.99 -10.52,11.32 -15.77,28.31 -15.77,50.96 0,13.89 3.1,25.21 9.57,34.11 6.47,8.77 14.83,15.78 25.08,20.77 10.24,4.98 23.32,9.7 39.1,14.15 0.8,0.27 1.75,0.54 2.56,0.68 0.94,0.13 1.88,0.27 2.56,0.54 0.54,0.27 1.21,0.4 1.89,0.54 0.67,0.13 1.21,0.27 1.75,0.27 22.92,6.33 41.53,12.94 56.09,19.95 14.42,7.01 26.69,18.07 36.67,33.3 10.11,15.37 15.1,36.14 15.1,62.43 0,26.83 -4.58,49.21 -13.62,66.74 -9.17,17.66 -22.92,30.87 -41.39,39.77 -18.34,8.76 -41.39,13.21 -69.03,13.21z"/>
  </g>
 </g>
</svg>
